<svg width="24" height="24" viewBox="0 0 24 24" fill="none" xmlns="http://www.w3.org/2000/svg">
  <path d="M19.4 13.5C19.46 13.01 19.5 12.51 19.5 12C19.5 11.49 19.46 10.99 19.39 10.5L21.53 8.84C21.72 8.69 21.77 8.42 21.65 8.2L19.62 4.8C19.5 4.58 19.23 4.49 19 4.57L16.48 5.58C16.09 5.28 15.67 5.02 15.22 4.81L14.84 2.12C14.8 1.88 14.59 1.7 14.34 1.7H10.26C10.01 1.7 9.8 1.88 9.76 2.12L9.38 4.81C8.93 5.02 8.51 5.28 8.12 5.58L5.6 4.57C5.37 4.49 5.1 4.58 4.98 4.8L2.95 8.2C2.83 8.42 2.88 8.69 3.07 8.84L5.21 10.5C5.14 10.99 5.1 11.49 5.1 12C5.1 12.51 5.14 13.01 5.21 13.5L3.07 15.16C2.88 15.31 2.83 15.58 2.95 15.8L4.98 19.2C5.1 19.42 5.37 19.51 5.6 19.43L8.12 18.42C8.51 18.72 8.93 18.98 9.38 19.19L9.76 21.88C9.8 22.12 10.01 22.3 10.26 22.3H14.34C14.59 22.3 14.8 22.12 14.84 21.88L15.22 19.19C15.67 18.98 16.09 18.72 16.48 18.42L19 19.43C19.23 19.51 19.5 19.42 19.62 19.2L21.65 15.8C21.77 15.58 21.72 15.31 21.53 15.16L19.4 13.5ZM12.3 15.5C10.37 15.5 8.8 13.93 8.8 12C8.8 10.07 10.37 8.5 12.3 8.5C14.23 8.5 15.8 10.07 15.8 12C15.8 13.93 14.23 15.5 12.3 15.5Z" fill="#2E4682"/>
</svg>
